<?xml version="1.0" standalone="no"?>
<!DOCTYPE svg PUBLIC "-//W3C//DTD SVG 20010904//EN"
 "http://www.w3.org/TR/2001/REC-SVG-20010904/DTD/svg10.dtd">
<svg version="1.0" xmlns="http://www.w3.org/2000/svg"
 width="499.000000pt" height="499.000000pt" viewBox="0 0 499.000000 499.000000"
 preserveAspectRatio="xMidYMid meet">
<metadata>
Created by potrace 1.14, written by Peter Selinger 2001-2017
</metadata>
<g transform="translate(0.000000,499.000000) scale(0.100000,-0.100000)"
fill="#000000" stroke="none">
<path d="M485 4689 c-90 -8 -99 -13 -119 -57 -14 -33 -15 -157 -15 -1242 1
-824 4 -1215 11 -1236 6 -17 23 -39 38 -47 27 -16 173 -30 164 -15 -3 4 5 4
18 -1 12 -4 37 -5 55 -1 18 5 33 5 33 1 0 -4 23 -5 50 -1 28 4 50 3 50 -2 0
-5 9 -4 20 2 14 8 20 8 20 0 0 -8 6 -8 20 0 12 6 20 7 20 1 0 -6 11 -6 30 -1
16 5 30 6 30 2 0 -4 22 -7 49 -7 27 0 47 3 45 7 -3 4 5 4 18 -1 13 -4 35 -5
50 0 16 4 28 4 28 0 0 -4 7 -8 15 -8 8 0 15 4 15 8 0 4 13 4 29 -1 15 -4 34
-4 42 0 7 5 21 4 30 -1 12 -6 20 -5 25 2 4 8 9 7 15 -2 7 -11 9 -11 9 1 0 13
2 13 9 1 8 -12 12 -12 25 -2 9 8 16 9 16 4 0 -5 9 -9 20 -10 11 -1 18 2 16 6
-7 11 38 8 46 -3 4 -6 13 -4 22 3 11 9 16 10 16 2 0 -13 22 -10 32 4 5 6 8 5
8 -3 0 -9 5 -10 19 -2 14 7 21 6 24 -3 3 -9 7 -9 20 2 10 7 17 9 17 4 0 -11
61 -10 78 1 6 3 13 2 16 -2 6 -10 48 -8 65 2 5 4 12 2 15 -2 6 -10 48 -8 65 2
5 4 12 2 15 -3 6 -9 60 -6 77 4 5 4 9 1 9 -5 0 -8 6 -8 20 0 11 6 20 7 20 2 0
-10 30 -9 48 2 6 4 12 3 12 -1 0 -10 41 -10 58 1 7 4 12 2 12 -4 0 -7 6 -8 17
-1 10 5 26 5 40 0 13 -5 23 -5 23 0 0 4 7 8 15 8 8 0 15 -3 15 -7 0 -3 15 -6
32 -6 l32 1 -1 -70 c-1 -38 -2 -73 -2 -76 -1 -4 -29 -6 -63 -5 -35 2 -69 -2
-77 -8 -10 -7 -13 -7 -9 -1 8 13 -351 14 -371 1 -10 -7 -12 -6 -6 3 5 8 -4 7
-24 -3 -20 -11 -28 -21 -25 -31 4 -8 1 -15 -7 -15 -7 0 -10 -3 -6 -6 3 -3 -6
-26 -19 -50 -14 -24 -23 -44 -20 -44 3 0 -1 -12 -9 -27 -9 -18 -11 -31 -4 -39
9 -11 61 -10 80 1 5 4 9 1 9 -5 0 -8 6 -7 21 1 16 8 20 8 14 -1 -6 -9 -3 -9
12 -1 14 7 23 7 31 -1 9 -9 12 -9 12 2 0 10 3 11 11 3 7 -7 21 -8 38 -3 15 4
35 3 44 -2 10 -5 17 -5 17 -1 0 5 9 9 20 9 11 0 20 -3 20 -6 0 -3 9 -6 20 -6
11 0 20 4 20 8 0 5 10 4 21 -3 16 -8 20 -8 14 1 -6 9 -3 9 12 1 14 -7 23 -7
31 1 9 9 12 9 12 -1 0 -11 3 -11 15 -1 11 9 15 9 15 1 0 -8 6 -9 18 -4 19 10
69 9 79 0 3 -4 12 -2 20 4 10 9 13 8 13 -1 0 -10 3 -10 15 0 11 9 15 9 15 1 0
-8 6 -9 18 -4 19 10 69 9 79 0 3 -4 12 -2 20 4 10 9 13 8 13 -1 0 -10 3 -10
15 0 8 7 15 8 15 3 0 -5 9 -9 20 -9 11 0 20 4 20 8 0 5 10 4 21 -3 17 -8 20
-8 14 1 -6 9 -3 10 10 2 11 -5 30 -6 47 -2 15 5 28 5 28 1 0 -3 9 -7 20 -7 11
0 20 3 20 6 0 3 9 6 20 6 11 0 20 -4 20 -9 0 -5 7 -4 15 3 10 8 15 9 15 1 0
-7 8 -8 25 -1 14 5 25 6 25 2 0 -4 9 -8 20 -8 11 0 20 3 20 6 0 3 9 6 20 6 11
0 20 -4 20 -7 0 -7 41 -3 68 6 6 2 12 1 12 -3 0 -4 9 -8 20 -8 11 0 20 3 20 6
0 3 9 6 20 6 11 0 20 -4 20 -9 0 -5 7 -4 15 3 10 8 15 9 15 1 0 -7 8 -8 25 -1
15 6 26 6 30 0 4 -6 14 -6 27 1 16 8 19 8 13 -1 -6 -9 -2 -9 14 -1 16 9 21 9
21 0 0 -8 4 -8 15 1 9 8 15 8 15 2 0 -7 10 -8 28 -2 16 4 36 4 45 -2 11 -6 17
-5 17 1 0 6 11 7 28 2 29 -8 53 -4 63 11 8 13 -1 58 -13 58 -5 0 -7 4 -3 9 3
5 -1 16 -9 24 -8 8 -12 17 -9 21 4 3 1 6 -6 6 -7 0 -10 4 -6 9 3 5 -1 15 -8
23 -8 7 -12 19 -9 26 2 6 -1 12 -7 12 -6 0 -11 6 -11 13 0 9 -62 12 -278 12
l-277 0 -5 68 c-3 37 -1 67 3 67 5 0 6 4 3 9 -3 5 9 8 28 7 19 -1 32 2 30 6
-3 5 6 4 20 -2 16 -6 27 -6 31 0 4 7 13 6 25 0 11 -6 21 -6 24 -1 3 5 21 5 40
1 22 -5 38 -4 45 3 8 8 11 8 11 0 0 -8 9 -9 30 -3 17 5 30 5 30 1 0 -9 31 -8
48 3 7 4 12 2 12 -6 0 -10 2 -10 9 1 7 11 9 11 13 0 4 -12 7 -12 21 0 10 7 17
9 17 4 0 -5 9 -9 20 -10 13 -1 18 2 14 9 -5 7 -2 8 5 3 20 -12 371 -12 371 0
0 7 3 7 8 0 9 -13 62 -17 62 -4 0 6 5 7 11 3 16 -10 109 -12 103 -2 -3 4 5 4
18 0 27 -10 39 -9 56 1 6 5 12 4 12 0 0 -5 9 -9 20 -10 11 -1 18 2 15 7 -3 5
8 5 25 0 16 -5 32 -5 35 0 3 5 18 5 34 0 19 -5 33 -4 40 3 7 7 11 7 11 1 0
-12 29 -12 48 0 6 4 12 3 12 -2 0 -10 30 -9 48 2 7 4 12 2 12 -6 0 -9 3 -9 10
2 5 8 10 10 10 4 0 -11 52 -10 71 1 5 4 9 1 9 -5 0 -8 6 -8 20 0 11 6 20 7 20
2 0 -5 18 -6 40 -2 22 4 40 4 40 0 0 -4 18 -4 40 0 22 4 40 5 40 1 0 -5 66 -6
80 -1 3 2 9 2 13 1 16 -3 67 30 62 39 -4 6 -2 10 2 10 5 0 14 14 20 30 8 23 8
30 0 30 -7 0 -6 4 3 10 13 9 13 10 0 10 -12 0 -13 2 -1 9 11 7 11 9 0 14 -8 3
-9 6 -4 6 14 1 9 2371 -6 2371 -5 0 -8 4 -5 9 6 8 -27 53 -38 52 -20 -3 -26 0
-21 8 6 10 -27 7 -45 -4 -6 -3 -10 -1 -10 5 0 6 -5 8 -12 3 -19 -11 -37 -12
-44 -2 -4 6 -10 6 -17 0 -18 -14 -29 -14 -37 -1 -5 8 -13 9 -21 4 -19 -12 -49
-12 -56 -1 -3 5 -9 3 -14 -4 -7 -12 -9 -12 -9 0 0 11 -3 11 -15 1 -11 -9 -15
-9 -15 -1 0 7 -5 9 -12 4 -19 -11 -37 -12 -44 -2 -3 5 -13 5 -25 -1 -13 -8
-19 -7 -19 0 0 6 -5 8 -12 4 -16 -10 -68 -11 -68 -1 0 5 -5 5 -12 1 -16 -10
-68 -11 -68 -1 0 5 -5 5 -12 1 -17 -11 -68 -10 -68 0 0 6 -4 6 -10 0 -7 -7
-28 -8 -55 -4 -24 4 -51 3 -59 -2 -10 -6 -16 -5 -16 2 0 6 -5 8 -12 3 -19 -11
-37 -12 -44 -2 -3 5 -11 6 -17 2 -17 -11 -31 -10 -38 0 -4 6 -13 6 -20 1 -20
-12 -39 -14 -39 -3 0 6 -6 7 -17 0 -10 -5 -26 -5 -40 0 -12 4 -25 4 -28 0 -6
-10 -24 -9 -41 2 -6 3 -14 3 -18 -1 -11 -10 -30 -9 -37 1 -4 5 -13 6 -20 1
-19 -12 -49 -12 -49 -1 0 5 -7 4 -15 -3 -12 -10 -15 -10 -15 1 0 12 -2 12 -9
0 -6 -9 -11 -10 -15 -2 -4 6 -13 8 -19 4 -17 -10 -47 -11 -47 -1 0 5 -9 4 -20
-2 -14 -8 -20 -8 -20 0 0 6 -5 8 -12 4 -16 -10 -68 -11 -68 -1 0 5 -5 5 -12 1
-16 -10 -68 -11 -68 -1 0 5 -5 5 -12 1 -17 -11 -68 -10 -68 1 0 5 -4 5 -10 -1
-7 -7 -28 -8 -55 -4 -24 4 -51 3 -59 -2 -10 -6 -16 -5 -16 2 0 6 -5 8 -12 3
-19 -11 -37 -12 -44 -2 -4 6 -10 6 -17 0 -18 -14 -29 -14 -37 -1 -5 8 -13 9
-21 4 -20 -12 -38 -14 -45 -3 -3 6 -12 5 -21 -3 -18 -15 -23 -15 -33 2 -5 8
-13 9 -21 4 -20 -12 -39 -14 -39 -3 0 5 -10 5 -23 0 -13 -5 -30 -5 -37 -1 -8
5 -19 6 -25 2 -16 -10 -35 -11 -35 -1 0 5 -10 5 -23 0 -13 -5 -30 -5 -37 -1
-8 5 -19 6 -25 2 -16 -11 -35 -11 -35 -1 0 6 -8 5 -20 -1 -14 -8 -20 -8 -20 0
0 8 -6 8 -20 0 -14 -8 -20 -8 -20 0 0 8 -6 8 -20 0 -14 -8 -20 -8 -20 0 0 8
-6 8 -20 0 -14 -8 -20 -8 -20 0 0 8 -6 8 -20 0 -14 -8 -20 -8 -20 0 0 8 -6 8
-20 0 -14 -8 -20 -8 -20 0 0 8 -6 8 -20 0 -14 -8 -20 -8 -20 0 0 8 -6 8 -20 0
-12 -6 -20 -7 -20 -1 0 6 -11 6 -30 1 -17 -5 -30 -5 -30 0 0 10 -19 8 -37 -3
-8 -5 -13 -3 -13 3 0 7 -6 8 -17 1 -10 -5 -26 -5 -40 0 -14 5 -23 5 -23 -1 0
-12 -22 -9 -31 4 -4 4 -15 4 -25 -2 -11 -6 -27 -7 -41 -1 -14 5 -23 5 -23 -1
0 -12 -22 -9 -31 4 -4 4 -15 4 -25 -2 -11 -6 -27 -7 -41 -1 -14 5 -23 5 -23
-1 0 -6 -9 -6 -23 -1 -13 5 -30 6 -37 1 -7 -5 -24 -4 -37 1 -14 5 -23 5 -23
-1 0 -6 -9 -6 -23 -1 -13 5 -30 6 -37 1 -7 -5 -24 -4 -36 0 -15 6 -24 5 -28
-3 -3 -9 -5 -9 -5 1 -1 10 -6 10 -21 2 -14 -8 -20 -8 -20 0 0 8 -6 8 -20 0
-14 -8 -20 -8 -20 0 0 8 -6 8 -20 0 -14 -8 -20 -8 -20 0 0 8 -6 8 -20 0 -14
-8 -20 -8 -20 0 0 8 -6 8 -20 0 -11 -6 -20 -7 -20 -3 0 4 -34 8 -75 8 -41 0
-75 -3 -75 -6 0 -3 -7 -6 -15 -6 -8 0 -15 5 -15 10 0 5 -8 6 -17 2 -27 -11
-63 -13 -63 -5 0 10 -20 8 -37 -3 -8 -5 -13 -3 -13 3 0 6 -5 8 -11 5 -16 -10
-59 -13 -59 -5 0 9 -20 8 -35 -2 -6 -4 -17 -3 -25 2 -9 5 -19 5 -27 -2 -7 -6
-13 -6 -13 -1 0 10 -9 10 -105 2z"/>
<path d="M560 1602 c-38 -6 -44 -14 -85 -115 -41 -99 -60 -145 -94 -219 -11
-26 -21 -50 -21 -52 0 -3 -32 -81 -71 -173 -95 -223 -92 -215 -96 -237 -8 -45
2 -47 307 -45 158 1 292 -1 298 -5 7 -4 12 -1 12 6 0 10 2 10 9 -1 7 -11 10
-11 15 0 5 11 7 11 12 1 5 -10 9 -10 20 -1 11 9 14 8 14 -2 0 -9 3 -10 8 -4 8
12 82 14 82 2 0 -4 5 -5 12 -1 16 10 68 11 68 1 0 -5 5 -5 12 -1 16 10 68 11
68 1 0 -5 5 -5 12 -1 16 10 68 11 68 1 0 -5 5 -5 12 -1 17 10 68 11 68 0 0 -5
7 -3 15 4 12 10 15 10 15 -1 0 -9 3 -10 8 -4 9 13 42 16 42 3 0 -5 5 -6 12 -2
17 10 68 11 68 0 0 -5 6 -4 13 3 10 8 17 7 25 -1 9 -9 12 -9 12 0 0 8 7 9 25
2 14 -5 25 -6 25 -2 0 8 85 6 108 -3 6 -2 12 1 12 7 0 7 4 7 14 -1 11 -9 15
-9 19 1 4 11 6 10 6 0 1 -7 6 -10 12 -6 18 11 109 10 113 -1 3 -6 5 -5 5 1 1
8 12 9 36 4 22 -5 35 -4 35 2 0 6 5 6 14 -1 11 -9 15 -9 19 1 4 11 6 10 6 0 1
-7 6 -10 12 -6 18 11 89 10 89 -1 0 -5 4 -4 9 4 7 11 9 11 14 0 3 -8 6 -9 6
-3 1 8 12 9 36 4 22 -5 35 -4 35 2 0 6 6 5 15 -2 12 -10 15 -10 15 1 0 12 2
12 9 0 5 -8 11 -9 15 -3 4 7 17 7 36 2 17 -5 30 -5 30 -1 0 5 18 5 40 1 22 -4
40 -4 40 0 0 4 18 4 40 0 22 -4 40 -4 40 0 0 4 18 4 40 0 22 -4 40 -4 40 0 0
4 18 4 40 0 22 -4 40 -4 40 0 0 4 18 4 40 0 22 -4 40 -5 40 -1 0 3 14 6 30 6
17 0 30 -4 30 -9 0 -5 6 -4 13 3 10 8 17 7 25 -1 9 -9 12 -9 12 0 0 8 7 9 25
2 14 -5 25 -6 25 -2 0 8 85 6 108 -3 6 -2 12 1 12 8 0 8 3 8 9 -2 7 -11 10
-11 15 0 5 11 7 11 12 1 3 -6 10 -9 16 -6 17 11 88 10 88 -1 0 -5 4 -4 9 3 9
15 17 15 44 1 11 -7 17 -6 17 2 0 8 4 8 15 -1 12 -10 15 -10 15 1 0 12 2 12 9
0 7 -11 9 -11 14 0 4 12 7 11 16 -1 6 -8 11 -10 11 -5 0 11 130 12 148 1 6 -3
13 0 15 6 4 10 6 9 6 -1 1 -11 4 -11 16 -1 12 10 15 10 15 -1 0 -9 3 -10 8 -4
9 12 82 14 82 1 0 -4 7 -3 15 4 12 10 15 10 15 -1 0 -11 2 -11 10 1 9 13 11
13 20 0 8 -12 10 -12 10 -1 0 11 3 11 15 1 8 -7 15 -9 15 -4 0 5 14 9 30 9 17
0 30 -4 30 -9 0 -5 7 -3 15 4 12 10 15 10 15 -1 0 -11 2 -11 10 1 9 13 11 13
20 0 8 -12 10 -12 10 -1 0 11 3 11 15 1 8 -7 15 -9 15 -4 0 5 14 9 30 9 17 0
30 -4 30 -9 0 -5 6 -4 13 3 10 8 17 7 25 -1 9 -9 12 -9 12 0 0 8 7 9 25 2 14
-5 25 -6 25 -2 0 9 53 8 68 -2 7 -4 12 -2 12 5 0 8 4 8 15 -1 10 -8 15 -9 15
-1 0 7 8 8 25 1 14 -5 25 -6 25 -2 0 7 130 6 163 -2 9 -2 17 -1 17 2 0 11 74
8 82 -3 5 -6 8 -6 8 2 0 10 43 9 77 -2 6 -2 14 1 17 8 3 8 5 6 5 -3 1 -13 2
-13 12 0 8 11 12 12 16 2 2 -6 10 -9 16 -5 13 8 163 7 177 -2 5 -3 10 -2 10 4
0 6 7 8 15 5 17 -7 49 21 40 36 -3 5 0 10 7 10 9 0 9 3 -2 10 -8 5 -11 10 -6
10 5 0 1 10 -10 22 -12 13 -13 18 -4 13 11 -6 10 -3 -2 12 -10 11 -18 27 -18
36 0 9 -4 19 -10 22 -5 3 -10 15 -10 26 0 10 -4 19 -10 19 -5 0 -10 9 -10 19
0 11 -5 23 -11 26 -6 4 -8 13 -5 20 3 8 0 15 -5 17 -6 2 -11 10 -12 18 -2 8
-6 21 -10 27 -5 7 -5 13 0 13 4 0 2 4 -5 9 -7 4 -14 18 -15 29 -1 12 -5 22 -9
22 -4 0 -8 9 -8 20 0 11 -5 20 -11 20 -5 0 -7 5 -4 10 3 6 1 10 -5 10 -6 0 -9
4 -6 9 5 8 -8 40 -50 122 -7 14 -10 29 -6 33 4 4 -1 12 -10 17 -10 5 -15 16
-12 24 4 8 1 15 -6 15 -6 0 -9 4 -6 8 3 5 -4 25 -14 45 -11 21 -17 37 -14 37
4 0 1 6 -5 13 -6 8 -9 17 -6 20 3 4 2 5 -1 3 -3 -2 -17 2 -32 10 -19 9 -30 10
-39 2 -7 -6 -13 -7 -13 -2 0 5 -90 9 -200 9 -110 0 -200 -4 -200 -8 0 -5 -5
-5 -11 -1 -17 10 -109 12 -109 2 0 -5 -5 -6 -12 -2 -18 11 -108 12 -108 2 0
-5 -5 -6 -12 -2 -18 12 -378 11 -378 -1 0 -7 -3 -7 -8 0 -4 6 -20 10 -37 10
-16 0 -33 -4 -37 -10 -5 -7 -8 -7 -8 0 0 9 -96 12 -105 3 -3 -2 -29 -1 -60 2
-30 3 -55 4 -55 1 0 -4 -48 -4 -106 -1 -58 3 -112 1 -120 -3 -9 -5 -14 -3 -14
5 0 9 -3 9 -10 -2 -5 -8 -10 -10 -10 -5 0 11 -72 11 -89 0 -6 -3 -11 0 -11 7
0 9 -3 9 -10 -2 -5 -8 -10 -10 -10 -5 0 6 -13 10 -30 10 -16 0 -30 -3 -30 -6
0 -3 -20 -3 -44 1 -25 4 -52 3 -60 -2 -9 -5 -16 -5 -16 -1 0 9 -94 8 -109 -2
-6 -3 -11 0 -11 7 0 9 -3 9 -10 -2 -5 -8 -10 -10 -10 -5 0 6 -13 10 -30 10
-16 0 -30 -3 -30 -7 0 -4 -13 -3 -29 2 -21 6 -31 5 -35 -3 -3 -8 -5 -7 -5 2
-1 11 -4 11 -16 1 -8 -7 -15 -9 -15 -4 0 5 -22 9 -50 9 -27 0 -50 -2 -50 -5 0
-3 -56 -3 -125 0 -80 3 -125 1 -125 -5 0 -7 -3 -7 -8 0 -4 6 -61 10 -135 10
-78 0 -127 -4 -127 -10 0 -5 -4 -4 -9 3 -4 8 -12 14 -16 14 -4 0 -12 -6 -16
-14 -7 -11 -9 -11 -9 1 0 10 -3 11 -13 2 -8 -6 -17 -8 -20 -4 -10 10 -176 9
-170 -1 3 -5 -2 -4 -12 2 -11 6 -30 6 -47 1 -16 -4 -26 -4 -23 0 2 5 -7 9 -20
9 -14 0 -25 -5 -25 -10 0 -5 -5 -6 -11 -2 -17 10 -268 10 -262 0 4 -5 0 -6 -7
-1 -16 10 -193 11 -209 1 -6 -4 -11 -4 -11 1 0 8 -64 11 -110 5z m231 -165 c7
-11 7 -17 -1 -17 -5 0 -9 -3 -8 -7 0 -5 -1 -15 -4 -23 -3 -8 -9 -28 -14 -45
-5 -16 -14 -30 -19 -30 -6 0 -16 -4 -22 -8 -8 -5 -13 -4 -13 2 0 13 -22 10
-32 -4 -5 -6 -8 -6 -8 1 0 13 -39 12 -59 -1 -10 -5 -16 -4 -19 3 -2 7 -8 10
-13 6 -14 -8 -11 14 9 55 10 21 18 47 17 59 -1 12 2 19 7 16 4 -3 8 -1 8 4 0
5 36 8 81 8 66 -1 82 -4 90 -19z m255 -1 c3 -10 2 -21 -2 -25 -5 -3 -10 -12
-12 -19 -5 -25 -11 -57 -11 -64 -1 -5 -8 -8 -16 -8 -8 0 -15 -6 -15 -12 0 -8
-3 -9 -8 -3 -8 12 -42 13 -60 2 -6 -5 -12 -4 -12 2 0 11 -19 9 -39 -4 -10 -5
-16 -4 -19 3 -3 9 -9 9 -25 1 -12 -7 -19 -8 -15 -4 4 4 0 13 -9 20 -13 9 -13
14 -3 20 9 6 11 4 5 -5 -5 -8 -4 -11 3 -7 5 4 8 16 5 27 -3 11 -1 20 5 20 6 0
11 8 11 18 0 14 7 57 10 57 1 0 46 0 101 0 89 0 101 -2 106 -19z m89 12 c9 10
155 10 149 0 -3 -4 -1 -8 4 -8 11 0 3 -50 -11 -67 -6 -9 -5 -13 4 -13 9 0 10
-3 3 -8 -6 -4 -13 -15 -17 -25 -4 -10 -11 -15 -17 -12 -5 3 -10 1 -10 -5 0 -7
-5 -8 -12 -3 -18 11 -32 10 -40 -2 -5 -6 -8 -5 -8 3 0 9 -5 10 -19 2 -14 -7
-22 -7 -26 0 -8 12 -37 9 -47 -5 -5 -6 -8 -5 -8 3 0 6 -7 12 -16 12 -12 0 -14
4 -7 13 5 6 16 38 23 69 11 49 15 56 30 48 10 -5 21 -6 25 -2z m328 -1 c-3 -6
-1 -7 6 -3 20 13 63 18 56 6 -3 -5 -2 -10 4 -10 6 0 6 -11 1 -29 -4 -16 -6
-32 -2 -35 3 -3 0 -6 -8 -6 -10 0 -10 -3 0 -15 9 -11 9 -15 1 -15 -7 0 -9 -4
-6 -10 6 -9 -7 -13 -47 -13 -10 0 -18 -4 -18 -10 0 -5 -8 -3 -17 4 -14 12 -16
12 -8 0 6 -11 5 -12 -6 -5 -21 12 -59 13 -59 0 0 -6 -4 -5 -9 3 -5 7 -13 11
-19 7 -15 -9 -25 12 -16 32 4 9 8 28 9 42 1 14 4 26 5 28 1 1 3 7 4 13 1 16
27 24 86 25 32 1 47 -2 43 -9z m140 0 c4 6 127 10 158 4 14 -2 16 -63 2 -68
-10 -4 -11 -9 -3 -18 7 -9 8 -15 1 -19 -6 -4 -8 -13 -4 -21 4 -11 1 -13 -13
-8 -13 5 -15 3 -9 -7 5 -9 4 -11 -3 -6 -21 12 -51 15 -58 5 -4 -6 -10 -6 -19
1 -10 8 -15 8 -20 0 -5 -8 -11 -8 -21 1 -8 6 -17 9 -21 6 -3 -4 -12 -2 -20 5
-11 9 -12 7 -7 -8 4 -10 4 -16 0 -13 -11 10 -17 59 -8 59 5 0 8 10 8 23 -1 12
0 27 3 32 6 10 8 17 10 38 1 9 3 9 10 -2 5 -7 11 -9 14 -4z m387 1 c0 -5 4 -7
9 -4 11 7 9 -13 -2 -31 -5 -8 -3 -13 5 -13 9 0 9 -3 2 -8 -6 -4 -10 -20 -9
-35 2 -33 -15 -44 -68 -43 -20 1 -37 -3 -37 -9 0 -5 -4 -4 -9 4 -6 9 -11 10
-15 2 -5 -7 -13 -8 -25 -1 -10 5 -21 7 -23 4 -3 -2 -11 2 -18 11 -9 11 -9 15
-1 15 8 0 9 5 2 19 -6 10 -7 22 -3 26 7 7 9 13 11 44 1 22 15 26 114 27 37 0
67 -3 67 -8z m241 -23 c1 -16 0 -39 -1 -50 -1 -11 -3 -28 -4 -38 0 -9 -5 -17
-10 -16 -5 0 -13 -5 -17 -13 -7 -11 -9 -11 -9 1 0 10 -3 11 -13 2 -8 -6 -17
-8 -21 -4 -12 12 -36 12 -36 0 0 -8 -3 -7 -9 1 -11 18 -15 19 -32 6 -10 -8
-21 -7 -39 2 -14 8 -20 14 -13 14 6 0 10 8 9 18 -2 9 2 20 8 24 8 5 7 8 -2 8
-9 0 -10 5 -3 18 7 13 7 22 -1 30 -11 11 -8 14 30 24 6 2 46 3 87 3 l75 0 1
-30z m95 23 c-7 12 115 10 130 -2 12 -11 12 -35 0 -54 -4 -6 -3 -12 3 -12 17
0 5 -55 -13 -58 -9 -2 -13 -8 -10 -14 5 -7 2 -8 -7 -3 -19 12 -49 14 -55 3 -3
-5 -13 -3 -22 4 -13 11 -14 11 -7 -1 6 -11 5 -12 -6 -5 -8 4 -25 9 -37 10 -27
1 -46 24 -32 38 6 6 5 15 -3 24 -9 12 -9 16 0 19 7 2 9 11 6 19 -9 24 16 45
39 33 11 -6 18 -7 14 -1z m209 2 c4 -6 12 -7 18 -3 17 11 31 10 40 -2 5 -7 9
-6 15 1 9 14 42 14 42 0 0 -7 3 -7 8 1 16 25 33 -5 36 -61 3 -67 -4 -73 -76
-71 -28 0 -48 -3 -48 -9 0 -8 -3 -8 -8 -1 -4 6 -18 11 -31 10 -22 0 -24 4 -26
45 0 25 -5 52 -10 59 -5 9 -4 12 2 8 6 -4 14 0 17 9 4 10 2 13 -6 8 -7 -4 -8
-3 -4 4 9 15 23 15 31 2z m243 -4 c-9 15 124 12 140 -3 6 -6 12 -14 12 -18 0
-3 -6 -3 -12 1 -10 6 -10 4 -2 -7 13 -16 13 -93 0 -96 -5 -1 -13 -7 -17 -15
-7 -11 -9 -11 -9 1 0 10 -3 11 -14 2 -8 -7 -17 -8 -20 -3 -6 10 -46 10 -63 -1
-6 -4 -14 -3 -18 3 -3 5 -14 10 -24 10 -15 0 -18 8 -17 50 1 28 -2 50 -6 50
-4 0 0 9 9 20 14 16 20 17 32 7 8 -7 12 -7 9 -1z m291 0 c9 -6 12 -5 8 1 -4 6
10 9 33 9 39 -1 45 -8 41 -43 -1 -7 2 -13 6 -13 4 0 9 -18 9 -40 1 -30 -2 -40
-15 -41 -17 -1 -33 -4 -41 -8 -17 -8 -41 -8 -46 0 -3 5 -13 5 -24 -1 -13 -7
-21 -7 -25 0 -9 15 -27 12 -19 -2 4 -7 -1 -6 -10 2 -9 9 -17 35 -19 58 -1 23
-5 42 -9 42 -3 0 -1 10 5 23 8 18 18 22 51 22 23 0 47 -4 55 -9z m319 -16 c5
-14 8 -33 6 -42 -1 -10 1 -18 6 -18 5 0 7 -8 5 -17 -1 -10 2 -23 6 -29 6 -8 1
-10 -16 -9 -14 2 -25 -2 -25 -8 0 -8 -3 -7 -9 2 -6 9 -11 10 -15 2 -4 -6 -12
-9 -17 -6 -18 12 -49 14 -55 4 -4 -6 -11 -6 -20 2 -10 8 -14 8 -14 0 0 -6 -8
-4 -19 6 -11 9 -17 22 -14 28 2 7 -1 16 -7 20 -8 5 -8 11 1 21 6 8 7 14 2 14
-12 0 -13 31 -2 45 4 6 46 10 93 10 83 0 86 -1 94 -25z m222 17 c0 -4 4 -6 9
-3 10 6 22 -40 26 -100 3 -34 0 -41 -13 -39 -10 2 -17 4 -17 6 0 1 -10 3 -22
4 -13 1 -23 -3 -23 -9 0 -6 -5 -4 -10 4 -9 13 -10 13 -10 0 0 -9 -3 -11 -8 -5
-10 14 -52 14 -52 1 0 -6 -5 -4 -10 4 -9 13 -10 13 -10 0 0 -11 -3 -11 -11 3
-6 11 -12 24 -13 30 -1 7 -6 18 -10 26 -7 11 -6 12 5 5 10 -5 8 0 -4 19 -10
15 -13 27 -7 27 6 0 8 5 4 11 -3 6 -2 14 4 18 15 9 172 8 172 -2z m191 -3 c7
-4 10 -3 5 4 -4 7 6 10 29 9 31 -2 38 -8 34 -33 0 -4 4 -10 10 -13 6 -4 12
-20 13 -37 1 -16 6 -32 12 -36 5 -3 3 -13 -7 -22 -10 -11 -18 -12 -22 -6 -5 8
-11 8 -19 1 -7 -6 -16 -7 -20 -3 -11 10 -30 9 -38 -3 -5 -6 -8 -4 -8 5 0 13
-1 13 -10 0 -5 -8 -10 -10 -10 -3 0 12 -24 12 -36 0 -12 -12 -21 -8 -39 19 -9
15 -11 23 -4 19 6 -5 10 -4 7 1 -23 41 -33 94 -18 94 6 0 9 4 6 9 -7 11 97 7
115 -5z m297 3 c7 -5 12 -3 12 5 0 7 7 2 16 -10 9 -13 14 -26 10 -29 -3 -3 1
-18 10 -34 8 -16 12 -29 8 -29 -4 0 -1 -6 5 -14 9 -11 8 -15 -6 -21 -24 -11
-36 -12 -48 -6 -17 9 -50 7 -57 -4 -5 -6 -8 -4 -8 5 0 13 -1 13 -10 0 -6 -10
-10 -11 -10 -3 0 9 -7 10 -23 4 -25 -10 -50 3 -55 29 -2 8 -6 24 -9 35 -2 11
-5 26 -5 33 -1 6 -4 12 -8 12 -4 0 -7 7 -7 15 0 8 4 12 9 9 4 -3 8 -1 8 3 0
11 151 10 168 0z m259 -16 c9 -14 12 -21 6 -18 -8 5 -7 -1 0 -18 7 -14 16 -25
20 -25 5 0 5 -5 1 -11 -3 -6 0 -15 7 -20 11 -7 11 -9 1 -9 -8 0 -10 -5 -6 -12
5 -8 2 -9 -9 -5 -10 3 -17 2 -17 -4 0 -6 -6 -7 -12 -3 -19 12 -48 12 -48 0 0
-6 -4 -5 -9 2 -9 15 -17 15 -43 1 -12 -7 -18 -6 -18 1 0 6 -4 8 -10 5 -5 -3
-10 0 -10 9 0 8 -4 16 -10 18 -5 2 -10 18 -12 36 -1 17 -6 32 -10 32 -6 0 -4
43 1 45 1 0 37 0 81 0 73 0 81 -3 97 -24z m-3654 -175 c-5 -7 -2 -7 8 1 12 10
15 8 16 -10 1 -12 -4 -32 -12 -44 -11 -16 -12 -24 -3 -29 8 -5 7 -10 -4 -18
-9 -6 -17 -20 -19 -31 -5 -23 -54 -29 -78 -11 -11 8 -13 8 -8 -1 5 -8 -8 -11
-48 -9 -30 1 -57 5 -61 9 -7 6 22 90 43 123 7 11 10 23 7 27 -3 3 26 4 65 3
39 -2 71 1 71 5 0 5 7 6 15 3 8 -4 12 -11 8 -18z m262 9 c17 0 20 -7 20 -42 0
-24 -3 -43 -7 -43 -5 0 -8 -9 -8 -20 0 -11 -4 -20 -9 -20 -5 0 -7 -10 -4 -22
4 -19 3 -20 -6 -8 -6 9 -11 10 -11 3 0 -6 -8 -10 -17 -8 -10 1 -23 -2 -29 -6
-7 -6 -16 -4 -24 6 -7 8 -17 12 -24 8 -6 -4 -32 -8 -58 -9 -55 -1 -65 13 -43
55 8 16 11 31 8 35 -4 3 -2 6 4 6 6 0 9 9 6 20 -3 11 0 20 6 20 6 0 10 5 9 12
-2 8 18 12 64 13 37 0 70 4 74 8 4 3 12 3 18 -1 6 -4 20 -7 31 -7z m181 0 c50
-1 71 2 67 9 -4 6 0 5 9 -1 8 -7 18 -11 21 -8 4 3 5 2 2 -2 -3 -3 0 -12 5 -18
7 -9 6 -14 -4 -18 -9 -3 -12 -15 -9 -31 4 -18 1 -26 -8 -26 -11 0 -11 -2 1
-10 9 -6 10 -10 3 -10 -7 0 -10 -9 -8 -21 3 -12 2 -19 -2 -15 -3 3 -13 0 -21
-7 -13 -10 -14 -9 -7 2 6 11 5 12 -6 5 -22 -13 -100 -14 -92 0 5 8 3 8 -8 0
-28 -20 -65 -15 -77 11 -8 18 -8 25 -1 25 6 0 9 9 6 20 -3 11 -1 23 5 26 5 3
7 12 4 20 -3 8 -1 14 5 14 6 0 9 7 5 15 -3 9 0 15 10 15 9 0 12 5 8 12 -5 7
-3 8 6 3 7 -4 46 -9 86 -10z m221 -1 c15 -2 21 1 17 8 -5 7 -2 8 7 2 18 -11
80 -14 73 -3 -3 5 2 6 10 3 9 -3 16 -12 16 -20 0 -8 5 -14 11 -14 8 0 8 -4 1
-12 -9 -11 -24 -79 -25 -115 0 -8 -6 -9 -18 -2 -12 6 -20 5 -24 -1 -5 -8 -12
-7 -23 2 -10 8 -13 8 -9 1 5 -8 -10 -11 -55 -9 -37 2 -66 -2 -70 -8 -4 -6 -8
-1 -8 12 0 16 -4 21 -12 16 -8 -5 -7 0 2 10 8 11 13 29 12 42 -2 13 0 24 5 24
5 0 10 12 11 26 3 35 10 44 29 37 12 -5 14 -3 8 7 -6 9 -4 11 6 5 7 -5 24 -10
36 -11z m354 2 c5 3 9 0 9 -6 0 -6 5 -8 10 -5 13 8 8 -18 -5 -27 -6 -5 -6 -8
2 -8 6 0 9 -9 6 -20 -3 -11 -10 -17 -16 -13 -6 4 -7 1 -1 -8 10 -16 6 -49 -7
-65 -10 -12 -63 -13 -75 -1 -4 4 -13 2 -21 -4 -7 -6 -13 -8 -13 -4 0 4 -8 1
-17 -6 -12 -10 -15 -10 -9 -1 6 9 0 11 -23 7 -19 -3 -31 -1 -31 5 0 6 -6 8
-12 4 -9 -5 -9 -2 1 9 7 9 9 17 4 17 -5 0 -10 7 -10 15 0 8 4 12 9 9 4 -3 9 6
9 20 2 38 3 44 11 51 4 4 5 12 2 19 -3 9 17 12 76 11 49 -1 80 3 81 10 0 5 3
4 6 -3 2 -6 9 -10 14 -6z m171 -2 c22 -2 37 0 34 5 -6 9 2 9 40 -4 16 -5 20
-14 19 -39 -1 -19 -4 -37 -7 -42 -2 -5 -3 -20 -2 -33 1 -14 -5 -31 -12 -39 -8
-7 -14 -10 -14 -5 0 4 -5 1 -10 -7 -7 -11 -10 -11 -10 -2 0 7 -4 11 -9 7 -5
-3 -13 -1 -16 5 -5 8 -11 7 -21 -1 -8 -6 -14 -8 -14 -5 0 4 -9 2 -19 -4 -12
-6 -22 -6 -26 -1 -3 6 -14 8 -25 6 -11 -2 -20 1 -20 6 0 6 -4 8 -8 5 -5 -3 -7
5 -6 17 1 12 3 22 4 22 2 0 4 18 6 40 3 22 5 46 6 53 1 6 5 13 10 13 4 1 12 2
17 3 5 0 13 4 17 8 4 4 11 5 16 2 6 -4 28 -8 50 -10z m286 0 c38 4 51 -9 47
-49 -2 -16 -4 -30 -5 -30 -1 0 -3 -10 -4 -22 -2 -13 2 -23 8 -23 6 0 5 -4 -3
-9 -7 -5 -11 -13 -8 -18 7 -11 -58 -11 -69 -1 -4 4 -13 3 -21 -3 -7 -6 -13 -8
-13 -5 0 4 -9 2 -20 -4 -15 -8 -20 -8 -20 1 0 6 -7 9 -15 5 -8 -3 -15 0 -15 7
0 8 -3 8 -9 -2 -12 -19 -21 14 -15 54 3 17 6 44 8 60 2 17 4 33 5 36 0 3 19 5
41 3 22 -2 42 2 46 7 4 7 10 6 18 0 7 -6 27 -9 44 -7z m202 1 c36 0 70 -4 75
-9 8 -7 11 -75 6 -146 -1 -13 -2 -13 -11 0 -7 11 -10 11 -10 2 0 -7 -4 -11 -9
-7 -5 3 -13 1 -16 -5 -5 -8 -11 -7 -21 1 -8 6 -14 8 -14 4 0 -4 -6 -2 -13 4
-8 6 -17 7 -21 3 -4 -4 -25 -7 -47 -8 -29 0 -38 3 -35 13 3 7 1 15 -4 18 -7 4
-6 13 0 26 8 14 7 19 -2 20 -10 0 -10 2 -1 6 9 3 10 10 3 23 -7 13 -7 21 0 25
6 4 8 11 5 16 -6 8 8 13 28 10 4 0 7 5 7 12 0 7 3 8 8 2 4 -6 36 -10 72 -10z
m198 -2 c23 -1 30 2 26 10 -5 9 -4 9 6 0 8 -8 20 -9 37 -2 14 5 22 5 19 0 -3
-5 5 -12 18 -15 22 -5 24 -9 16 -36 -5 -17 -5 -28 -1 -26 4 3 7 -15 7 -40 -1
-36 -4 -44 -19 -44 -11 0 -15 -4 -11 -12 5 -7 3 -8 -6 -3 -21 13 -70 13 -70 1
0 -6 -4 -5 -9 2 -9 15 -62 13 -73 -3 -4 -6 -8 -1 -9 10 -2 25 -6 57 -9 70 -1
6 -1 12 0 15 1 3 3 19 5 35 4 45 4 47 15 40 6 -3 10 0 10 7 0 8 3 9 8 3 4 -5
22 -11 40 -12z m307 1 c31 0 50 -4 50 -11 0 -6 3 -15 7 -19 4 -4 3 -13 -3 -21
-9 -10 -8 -13 1 -13 7 0 10 -6 7 -14 -3 -7 0 -19 6 -26 9 -10 9 -11 0 -6 -8 4
-11 -2 -10 -21 l2 -28 -101 0 c-94 0 -100 1 -96 19 4 14 2 17 -8 11 -10 -6
-11 -4 -4 6 13 21 14 39 1 39 -8 0 -8 3 0 11 7 7 8 21 3 40 -10 34 -7 36 43
34 20 0 37 4 37 10 0 7 3 7 8 -1 4 -5 30 -10 57 -10z m281 -5 c9 -10 18 -39
20 -66 3 -26 7 -53 9 -60 7 -20 -18 -30 -67 -29 -27 1 -48 -3 -48 -9 0 -6 -3
-6 -8 1 -9 14 -45 27 -37 14 7 -11 -30 -8 -41 3 -4 4 -7 20 -6 37 0 20 -3 28
-10 24 -7 -5 -8 -2 -2 7 12 20 14 38 4 44 -5 3 -7 12 -4 20 4 8 10 12 15 9 5
-3 9 -1 9 4 0 5 29 7 65 6 36 -1 63 1 60 5 -9 16 26 7 41 -10z m197 6 c48 0
75 -14 62 -35 -3 -5 -1 -10 5 -10 6 0 8 -4 5 -10 -3 -5 -3 -16 2 -22 12 -19
12 -77 0 -85 -6 -4 -7 -1 -2 8 7 11 6 12 -6 3 -8 -6 -35 -10 -61 -9 -27 0 -48
-4 -48 -10 0 -5 -4 -4 -8 3 -5 7 -19 11 -32 9 -38 -6 -54 18 -52 79 0 36 -3
54 -11 54 -7 0 -4 7 6 14 9 7 31 12 47 10 19 -2 30 1 30 9 0 8 3 8 8 2 4 -6
29 -10 55 -10z m472 5 c-3 -5 14 -8 43 -6 42 3 48 1 49 -17 1 -11 7 -23 14
-27 8 -6 8 -10 -1 -15 -10 -6 -9 -11 5 -22 14 -9 15 -13 4 -13 -12 0 -12 -2 1
-10 8 -5 11 -10 6 -10 -5 0 -3 -7 4 -15 9 -11 9 -15 1 -15 -7 0 -10 -4 -7 -8
3 -5 -13 -8 -35 -7 -22 1 -39 -3 -39 -9 0 -6 -4 -5 -9 3 -5 8 -16 11 -26 7
-10 -3 -23 -2 -30 4 -9 8 -15 8 -20 0 -3 -5 -11 -10 -16 -10 -6 0 -7 4 -4 10
3 5 0 7 -8 4 -18 -6 -30 10 -34 48 -4 42 -7 52 -17 59 -4 4 -5 16 -2 27 6 17
14 20 57 18 27 -2 52 1 55 6 3 4 7 8 10 8 3 0 3 -4 -1 -10z m473 -4 c7 -4 12
-2 12 6 0 8 3 9 8 3 11 -15 42 -18 42 -3 0 8 3 9 8 3 4 -5 13 -10 21 -10 8 0
19 -9 25 -20 6 -11 13 -22 16 -25 3 -3 7 -16 9 -30 1 -14 8 -28 15 -32 6 -4 7
-8 3 -8 -4 0 -3 -8 2 -19 13 -24 3 -35 -17 -18 -10 7 -13 8 -9 1 8 -13 -50
-14 -70 -1 -6 4 -14 3 -18 -3 -3 -5 -11 -10 -16 -10 -6 0 -7 6 -3 13 6 9 4 9
-7 1 -8 -5 -20 -9 -26 -8 -7 1 -18 2 -24 3 -5 0 -8 5 -4 10 3 5 0 13 -6 16 -5
4 -8 13 -5 21 3 7 1 16 -4 19 -6 4 -10 15 -10 26 0 10 -4 19 -10 19 -5 0 -9
11 -8 24 1 14 5 23 9 20 4 -2 10 0 13 4 6 10 36 9 54 -2z m-645 -8 c-2 -5 1
-8 7 -8 6 0 8 -5 5 -10 -4 -6 -2 -16 3 -23 5 -7 10 -20 11 -29 1 -10 2 -27 3
-38 1 -11 6 -20 11 -20 5 0 4 -6 -2 -14 -13 -15 -28 -16 -50 -2 -9 6 -12 5 -7
-2 4 -7 -8 -10 -36 -8 -24 1 -49 -2 -57 -8 -12 -8 -13 -8 -7 2 6 11 1 12 -23
9 -17 -3 -33 -1 -37 4 -3 5 0 9 7 9 8 0 8 4 2 13 -15 18 -24 49 -13 42 5 -3 2
11 -6 32 -11 26 -13 38 -5 41 6 2 9 7 7 11 -3 4 40 7 94 7 54 -1 96 -4 93 -8z
m525 -15 c2 -13 7 -23 11 -23 4 0 7 -10 8 -22 1 -11 6 -24 10 -27 4 -3 8 -19
8 -36 0 -29 -1 -30 -50 -30 -28 -1 -57 -5 -64 -9 -10 -7 -12 -5 -6 4 6 10 2
11 -19 6 -19 -5 -26 -3 -21 4 4 7 -2 6 -15 -2 -18 -10 -24 -10 -27 0 -3 6 -10
9 -16 5 -7 -3 -9 -3 -5 2 4 4 3 14 -3 22 -6 7 -8 13 -5 13 4 0 1 10 -5 22 -7
13 -14 39 -15 58 l-4 36 108 0 c103 -1 107 -2 110 -23z m-3178 -133 c0 -5 -2
-10 -4 -10 -3 0 -8 5 -11 10 -3 6 -1 10 4 10 6 0 11 -4 11 -10z m-424 -53 c3
-3 16 -2 28 2 24 9 49 3 40 -10 -3 -5 -1 -9 5 -9 6 0 4 -12 -4 -27 -8 -15 -12
-30 -9 -35 3 -4 0 -8 -6 -8 -6 0 -8 -4 -5 -10 3 -5 2 -10 -3 -10 -6 0 -9 -8
-8 -17 0 -10 -5 -17 -11 -15 -7 1 -13 -2 -13 -8 0 -12 -22 -9 -31 4 -4 5 -13
5 -20 1 -14 -9 -128 -9 -136 -1 -3 3 -1 18 5 33 6 15 17 42 23 58 7 17 13 35
13 40 2 16 117 27 132 12z m344 -8 c5 -7 6 -17 4 -21 -3 -4 -7 -18 -10 -30
-15 -65 -23 -86 -39 -92 -8 -3 -15 0 -15 7 0 7 -3 8 -8 2 -8 -12 -42 -16 -42
-6 0 4 -7 8 -15 8 -8 0 -15 -3 -15 -7 0 -3 -9 -6 -20 -6 -11 0 -20 4 -20 9 0
5 -7 4 -15 -3 -12 -10 -18 -10 -30 0 -10 8 -15 9 -15 2 0 -6 -7 -9 -16 -5 -13
5 -13 7 -2 14 11 7 11 9 0 9 -10 0 -10 4 2 16 18 18 21 28 5 18 -6 -3 -3 8 6
25 9 17 13 35 10 40 -2 5 2 12 11 15 8 3 13 9 11 13 -3 5 42 8 100 7 76 -1
107 -5 113 -15z m132 6 c5 -7 8 -6 8 0 0 11 72 12 114 1 24 -6 24 -7 11 -51
-8 -25 -11 -45 -8 -45 4 0 2 -5 -4 -11 -6 -6 -9 -18 -6 -27 4 -10 2 -13 -5 -8
-7 4 -12 3 -12 -2 0 -5 -7 -9 -15 -9 -8 0 -15 4 -15 9 0 5 -8 4 -18 -1 -10 -6
-24 -6 -32 -1 -8 5 -18 6 -22 4 -17 -11 -48 -12 -48 -3 0 6 -6 7 -12 2 -40
-24 -66 14 -39 57 14 21 14 23 1 15 -12 -7 -13 -6 -3 7 7 8 10 18 6 21 -3 4
-1 7 6 7 6 0 11 8 9 18 -2 9 3 16 10 15 6 -2 12 1 12 5 0 11 54 9 62 -3z m320
0 c5 -7 8 -6 8 0 0 12 35 12 63 0 11 -5 14 -12 9 -19 -5 -6 -8 -26 -7 -43 0
-18 -4 -33 -9 -33 -5 0 -6 -3 -3 -7 4 -3 2 -12 -4 -20 -9 -10 -8 -13 2 -14 8
0 5 -4 -6 -8 -11 -5 -25 -4 -32 1 -7 6 -13 6 -13 1 0 -5 -13 -9 -30 -8 -16 0
-30 4 -30 10 0 7 -3 7 -8 0 -4 -5 -16 -10 -27 -10 -11 0 -23 5 -27 10 -5 6 -8
6 -8 -2 0 -6 -8 -10 -17 -8 -10 1 -17 8 -15 14 1 6 -3 11 -9 11 -5 0 -7 5 -4
10 4 6 9 22 11 37 3 15 11 34 17 42 10 12 9 13 -1 7 -11 -7 -12 -4 -3 12 8 14
23 22 49 24 63 5 87 3 94 -7z m324 2 c10 -10 12 -47 2 -53 -6 -4 -5 -10 3 -15
10 -6 10 -9 2 -9 -8 0 -11 -11 -9 -29 3 -29 -27 -61 -39 -41 -4 7 -13 6 -26 0
-12 -7 -19 -7 -19 -1 0 7 -9 7 -25 1 -15 -6 -26 -6 -30 1 -4 5 -11 7 -16 4 -5
-4 -18 -8 -29 -10 -25 -5 -41 28 -30 65 4 14 6 36 5 48 -1 13 4 26 12 29 7 3
11 8 9 12 -5 7 183 6 190 -2z m160 0 c3 -3 12 -3 20 0 26 10 264 8 264 -2 0
-7 3 -7 8 0 4 6 63 10 140 10 81 0 132 -4 132 -10 0 -7 3 -7 8 0 4 6 54 10
112 10 58 0 108 -4 112 -10 5 -7 8 -7 8 0 0 6 51 9 137 8 137 -2 160 -8 148
-40 -2 -7 0 -15 5 -18 6 -4 10 -11 10 -16 0 -6 -6 -7 -12 -3 -10 6 -10 4 -2
-7 16 -22 16 -66 -2 -73 -10 -4 -13 -2 -8 6 4 7 3 8 -4 4 -20 -12 -52 -15 -52
-5 0 6 -4 7 -10 4 -19 -11 -50 -14 -50 -4 0 6 -6 7 -12 3 -18 -11 -48 -12 -48
-2 0 5 -9 4 -20 -2 -14 -8 -20 -8 -20 0 0 6 -4 8 -10 5 -19 -11 -50 -14 -50
-4 0 6 -6 7 -12 3 -18 -11 -48 -12 -48 -2 0 5 -9 4 -20 -2 -14 -8 -20 -8 -20
0 0 6 -4 8 -10 5 -19 -12 -50 -14 -50 -3 0 7 -4 7 -13 0 -7 -6 -18 -7 -27 -2
-7 4 -24 4 -37 -1 -18 -6 -22 -6 -17 3 4 6 3 8 -3 5 -19 -12 -63 -16 -63 -5 0
7 -4 7 -13 0 -7 -6 -18 -8 -24 -4 -15 9 -55 8 -71 -2 -7 -4 -12 -2 -12 5 0 8
-3 9 -13 0 -8 -6 -17 -8 -20 -4 -10 9 -60 10 -79 0 -11 -5 -18 -4 -18 3 0 7
-7 7 -21 -1 -16 -8 -20 -8 -14 1 6 9 2 9 -14 1 -16 -9 -21 -9 -21 0 0 8 -5 7
-17 -2 -13 -11 -17 -11 -21 -1 -3 10 -7 10 -18 1 -11 -9 -14 -9 -14 0 0 7 -5
9 -12 4 -19 -11 -37 -12 -44 -2 -3 5 -13 5 -25 -1 -13 -8 -19 -7 -19 0 0 8 -6
8 -20 0 -15 -8 -20 -8 -20 1 0 9 -3 9 -14 0 -10 -9 -16 -9 -21 -1 -5 8 -11 8
-21 -1 -16 -13 -15 -15 -19 34 -2 20 0 37 4 37 3 0 6 17 6 38 -1 32 2 38 24
42 32 6 79 5 87 -3z m1175 -2 c8 6 84 9 104 5 6 -1 21 -3 35 -3 20 -2 25 -7
25 -29 -1 -14 3 -24 7 -22 5 3 7 -13 5 -35 -2 -22 0 -38 5 -35 10 6 10 -7 0
-21 -8 -12 -32 -13 -49 -2 -8 5 -13 4 -13 -2 0 -13 -22 -10 -33 4 -6 6 -10 6
-14 -2 -3 -9 -10 -10 -22 -3 -10 5 -22 6 -25 2 -11 -10 -39 -9 -52 3 -7 6 -10
20 -8 33 3 13 -1 22 -8 22 -10 0 -9 3 1 9 8 6 10 14 5 22 -14 23 -13 61 3 55
7 -3 13 0 14 7 0 9 2 9 6 -1 2 -6 9 -10 14 -7z m420 -7 c4 -7 5 -16 3 -20 -3
-4 1 -8 8 -9 10 0 10 -2 1 -6 -9 -3 -10 -10 -3 -22 5 -10 6 -21 3 -25 -3 -3
-2 -6 4 -6 5 0 10 -7 10 -15 0 -8 -5 -15 -11 -15 -6 0 -5 -4 2 -9 10 -6 9 -10
-7 -14 -12 -3 -21 0 -21 5 0 7 -5 7 -13 -1 -10 -8 -17 -7 -25 1 -9 9 -12 9
-12 0 0 -14 -21 -12 -32 3 -5 6 -11 5 -17 -3 -11 -17 -21 -17 -32 0 -6 8 -9 9
-9 1 0 -25 -49 -1 -49 25 0 9 -3 42 -6 72 l-5 55 102 -3 c66 -1 104 -6 109
-14z m161 7 c5 -6 8 -5 8 3 0 10 5 10 20 2 15 -8 20 -8 20 1 0 8 5 7 17 -2 13
-11 15 -11 9 -1 -7 11 -4 11 11 2 10 -7 20 -22 21 -34 2 -24 9 -60 12 -63 5
-6 6 -48 2 -56 -2 -4 -11 -3 -19 2 -9 5 -28 5 -43 1 -15 -4 -33 -4 -41 0 -7 5
-18 6 -23 2 -17 -10 -46 -10 -46 1 0 5 -6 4 -14 -2 -11 -9 -17 -6 -31 15 -11
17 -12 24 -4 18 12 -6 12 -5 0 9 -7 9 -10 17 -7 17 4 0 2 9 -4 20 -8 15 -8 20
2 20 8 0 9 3 3 8 -5 4 -10 16 -11 27 -1 18 5 20 55 20 31 0 59 -4 63 -10z
m359 -2 c4 -4 10 -21 13 -36 3 -16 10 -35 17 -43 9 -11 8 -14 -2 -14 -9 -1 -8
-5 5 -15 11 -8 14 -15 7 -15 -7 0 -10 -4 -7 -9 8 -12 -39 -20 -55 -10 -7 4
-18 5 -24 1 -15 -10 -39 -8 -47 3 -5 7 -8 7 -8 0 0 -14 -66 -10 -85 5 -9 7
-14 21 -13 30 2 9 -3 24 -11 33 -10 13 -10 17 -1 17 9 0 8 7 -4 24 -15 23 -14
25 9 33 31 10 195 7 206 -4z m102 3 c7 8 167 8 174 0 3 -3 7 -19 8 -37 2 -17
7 -34 11 -38 5 -3 10 -10 11 -16 8 -56 8 -58 -14 -60 -13 -1 -23 2 -23 7 0 5
-10 4 -21 -3 -16 -8 -20 -8 -14 1 6 9 2 9 -14 1 -13 -8 -21 -8 -21 -2 0 7 -9
7 -25 1 -15 -6 -26 -6 -30 0 -4 7 -13 7 -24 0 -14 -7 -22 -3 -40 20 -12 17
-16 30 -10 30 8 0 9 4 0 13 -6 8 -8 17 -4 20 3 4 1 7 -6 7 -7 0 -9 5 -6 10 3
6 2 10 -4 10 -12 0 -2 32 13 42 6 4 15 3 22 -2 6 -6 14 -7 17 -4z m415 -5 c13
-7 19 -17 16 -26 -4 -8 -1 -15 5 -15 6 0 11 -7 11 -16 0 -8 5 -25 12 -37 13
-24 20 -52 11 -43 -4 3 -12 1 -20 -5 -10 -9 -13 -8 -13 0 0 7 -5 9 -12 4 -19
-11 -37 -12 -44 -2 -3 5 -13 5 -25 -1 -13 -8 -19 -7 -19 0 0 7 -6 8 -18 1 -13
-7 -23 -6 -30 1 -9 9 -12 9 -12 0 0 -24 -26 10 -28 37 -1 14 -5 27 -10 30 -4
3 -8 11 -8 16 -1 6 -4 22 -8 37 -6 24 -3 27 26 30 61 6 145 0 166 -11z"/>
<path d="M2070 352 c0 -4 -39 -8 -87 -9 -219 -2 -411 -9 -407 -14 2 -3 -3 -6
-11 -6 -8 0 -15 3 -15 6 0 3 -11 6 -24 6 -13 0 -22 -3 -20 -6 2 -4 -23 -5 -56
-4 -42 2 -58 -1 -53 -9 4 -6 -1 -5 -10 3 -14 11 -17 11 -17 0 0 -11 -2 -11
-10 1 -5 8 -10 10 -10 4 0 -7 -14 -10 -34 -7 -19 2 -38 -1 -41 -7 -5 -8 -11
-7 -21 1 -11 9 -14 9 -14 -1 0 -9 -3 -10 -13 -1 -8 6 -17 8 -20 5 -5 -5 -112
-14 -214 -17 -12 -1 -20 -4 -18 -8 7 -11 55 -17 55 -7 0 5 9 4 19 -2 14 -7 22
-7 26 0 4 6 12 7 18 3 7 -5 21 -8 32 -8 11 0 23 -4 27 -10 5 -6 8 -5 8 4 0 11
3 11 15 1 11 -9 15 -9 15 -1 0 7 5 9 13 4 13 -8 84 -14 209 -16 43 -1 78 -4
78 -7 0 -3 22 -5 50 -6 32 0 47 3 43 10 -5 8 -3 8 8 0 14 -10 95 -15 287 -17
55 -1 92 -6 92 -12 0 -7 3 -7 8 0 8 11 42 16 42 6 0 -4 9 -7 20 -7 11 0 20 3
20 6 0 3 11 5 25 5 14 0 25 -3 25 -6 0 -5 73 -4 95 1 6 1 12 1 15 0 3 -1 29
-3 57 -5 35 -2 51 1 46 8 -4 6 -1 7 8 1 20 -13 201 -13 218 0 11 8 13 8 8 -1
-6 -9 3 -11 31 -9 22 2 44 6 50 10 6 3 13 2 16 -3 6 -10 98 -7 115 3 5 4 12 2
16 -3 6 -10 45 -11 45 -1 0 4 7 7 15 7 8 0 15 -5 15 -10 0 -5 6 -4 13 2 8 6
17 8 21 4 9 -9 46 -11 46 -2 0 8 20 7 35 -3 6 -4 17 -3 25 2 7 4 24 4 37 -1
13 -5 22 -5 19 -1 -3 5 44 8 105 8 60 -1 109 1 109 4 0 3 26 5 58 5 31 -1 64
3 73 7 9 4 19 5 23 1 7 -7 75 -10 71 -3 -2 3 40 6 92 7 61 1 100 6 111 15 10
8 13 9 9 1 -5 -8 0 -11 13 -10 11 1 20 5 20 9 0 5 9 4 20 -2 13 -7 20 -7 20
-1 0 7 8 7 23 2 12 -5 31 -5 42 -1 11 4 44 7 73 6 29 -1 52 3 52 7 0 5 8 6 18
2 11 -4 14 -3 7 4 -6 6 -44 12 -86 14 -41 2 -80 7 -87 11 -7 4 -12 2 -12 -5 0
-8 -5 -7 -17 2 -14 12 -16 12 -8 0 6 -11 5 -12 -6 -5 -8 4 -41 9 -74 9 -33 1
-66 4 -73 9 -7 4 -12 2 -12 -6 0 -8 -3 -9 -8 -3 -4 6 -38 10 -77 9 -38 0 -80
3 -91 7 -13 5 -26 3 -33 -4 -8 -8 -14 -8 -19 -2 -9 14 -65 14 -74 0 -5 -7 -8
-6 -8 1 0 7 -25 11 -70 10 -41 -1 -70 3 -70 9 0 6 -5 3 -10 -5 -9 -13 -10 -13
-10 0 0 13 -1 13 -10 0 -5 -8 -10 -10 -10 -5 0 6 -40 10 -101 9 -55 0 -102 3
-105 8 -3 5 -10 6 -15 2 -17 -10 -59 -12 -65 -3 -3 5 -14 4 -25 -1 -13 -8 -19
-7 -19 0 0 6 -5 8 -12 4 -17 -11 -48 -12 -48 -3 0 5 -10 5 -23 0 -14 -5 -30
-5 -40 0 -12 7 -17 6 -17 -2 0 -8 -4 -8 -13 -1 -8 7 -18 7 -27 2 -8 -5 -21 -5
-32 1 -13 7 -18 6 -18 -2 0 -9 -3 -9 -14 0 -10 8 -16 9 -21 1 -4 -7 -12 -7
-26 0 -14 8 -19 7 -19 -1 0 -9 -3 -9 -14 0 -10 8 -16 9 -21 1 -4 -7 -12 -7
-25 0 -13 7 -20 6 -24 -3 -5 -9 -7 -9 -12 0 -3 8 -13 9 -28 3 -13 -4 -29 -4
-39 1 -12 7 -17 6 -17 -2 0 -8 -4 -9 -13 0 -10 8 -17 7 -25 -1 -9 -9 -12 -9
-12 1 0 10 -3 11 -13 2 -10 -8 -17 -7 -25 1 -9 9 -12 9 -12 -1 0 -10 -3 -11
-13 -2 -10 8 -17 7 -25 -1 -9 -9 -12 -9 -12 1 0 7 -5 9 -12 5 -16 -10 -58 -11
-58 -2 0 4 -4 8 -10 8 -5 0 -10 -4 -10 -8z"/>
</g>
</svg>
